<svg width="192" height="38" viewBox="0 0 192 38" xmlns="http://www.w3.org/2000/svg"><title>logo</title><g fill="#0E4D8C" fill-rule="evenodd"><path d="M12.89 9.14l1.23-2.25s-2.892-1.895-6.34-.132c0 0-3.685 1.67-4.37 7.917H.55l-.477 2.723H2.89L0 33.215h4.318L7.28 17.393l4.022.008.515-2.725H7.78s.11-3.195 1.58-5.035c0 0 1.12-1.452 3.53-.5zm24.585 5.09s-4.492 2.154-3.16 6.115c0 0 .313.87 1.355 1.93 0 0 3.17 3.557 3.65 4.504 0 0 .927 2.222-1.026 3.11 0 0-3.264 1.206-5.698-1.27l-1.406 2.857s3.232 2.41 7.488 1.556c0 0 6.24-1.142 5.09-6.885 0 0-.226-.955-.833-1.684l-3.52-4.095s-2.24-2.506.703-3.812c0 0 2.095-.76 3.82 1.1l1.665-2.286s-4.25-2.984-8.128-1.14zM56.5 8.803l-4.607 1.015-.673 4.447h-2.463l-.47 2.528h2.433l-2.26 11.89c-.49 3.43 2.177 4.277 2.177 4.277 2.345.802 6.507-.533 6.507-.533l.02-2.767c-.876.51-2.102.63-2.102.63-2.4.192-2.21-1.553-2.21-1.553-.062-.63.288-2.35.288-2.35l1.954-9.6h4.354l.446-2.523h-4.32l.927-5.462zm28.546 5.59l-6.752 13.62-1.57-13.332H73.37l-6.69 13.3-.992-13.618-4.48.634 2.336 18.22h3.04l6.88-13.172 2.015 13.172h2.977L88.536 15.22l-3.49-.828zm15.682 5.543s-1.293 2.022-4.972 2.26c0 0-2.228.123-2.548.105 0 0 .67-3.14 3.392-5 0 0 2.74-1.823 4.158.047 0 0 .762 1.114-.03 2.588zm1.472-5.744s-2.98-1.314-6.74.597c0 0-5.128 2.382-6.798 7.56 0 0-1.143 3.022-.35 6.173 0 0 .658 4.344 6.484 4.695 0 0 4.78.09 7.875-2.37l-1.176-2.202s-4.243 2.18-6.655 1.23c0 0-2.26-.782-2.09-5.017 0 0 4.682.047 7.413-.856 0 0 4.63-1.302 4.947-5.807 0 0 .128-2.907-2.91-4.002zm17.79 12.177s-1.982 4.838-5.74 4.053c0 0-2-.156-2.377-2.093 0 0-.01-.826.418-2.835 0 0 .63-3.818 2.68-6.486 0 0 1.993-2.65 4.316-1.908 0 0 3.563 1.25.705 9.27zm-.676-12.446c-3.106.544-5.483 3.63-5.483 3.63l2.23-11.94h-4.607l-4.998 27.234h4.482l.254-1.62c1.858 2.35 5.41 1.97 5.41 1.97h.002c4.257-.065 7.168-5.048 7.168-5.048 3.66-6.523 1.433-10.998 1.433-10.998-1.683-3.917-5.89-3.227-5.89-3.227zm-95.9 11.442c-1.847 4.2-4.437 4.72-4.437 4.72-2.75.708-3.24-3.134-3.24-3.134-.695-4.388 1.853-7.565 1.853-7.565 2.297-3.054 4.36-2.788 4.36-2.788 1.22.067 2.055.92 2.322 1.402.22.396 1.15 2.527-.858 7.365zm2.047-9.184s-.996-1.787-3.71-2.352c0 0-1.64-.495-3.952.52 0 0-4.133 1.54-5.978 6.855 0 0-.214.493-.407 1.452 0 0-.95 3.42.246 7.005 0 0 1.45 4.21 5.718 3.472 0 0 3.006-.637 5.546-3.473l-.513 3.153h4.33l3.618-18.63h-4.45l-.447 1.998z"/><path d="M187.74 11.4L185 27.582c-1.096-.835-1.608-7.182-1.608-7.182l3.84-8.673h-3.147l-1.423 2.793-.222-2.9h-5.376l-1.535 3.083-.29-3.083h-3.112l.585 9.18c-.912 3.587-3.62 6.708-3.62 6.708l2.523-15.633c1.793-1.706 4.826-2.65 4.826-2.65 5.853-1.922 9.51-.726 9.51-.726 2.305.65 1.79 2.9 1.79 2.9zm-10.713 15.202l-.844-6.312 3.22-6.712.732 6.927-3.108 6.097zm-23.53-5.747l1.703-9.215c3.74.255 3.408 2.754 3.408 2.754-.04 2.974-2.46 6.478-2.46 6.478l-2.652-.017zm-4.193-.02l-5.302.037v1.16h4.936c-.768 2.137-4.57 7.327-4.57 7.327-.77 1.378-3.11 3.302-3.11 3.302l3.622-19.884s5.155-.942 5.96-.942l-1.536 9zM190.68 8.23s-1.503-1.68-4.48-1.618c0 0-8.16-.54-14.207 3.62l.48-3.016-3.936.825-3.295 20.064s-.225 3.33-2.913 3.904h-3.52s-1.026-.41-1.346-2.064l-1.825-8.032h5.89v-1.087l-1.295-.007s2.778-4.625 1.775-7.82c0 0-1-3.024-6.477-2.793l.74-4.332-4.405.806-.668 3.673s-3.292.392-6.05 1.09l1.125-5.642-4.332.918-1.074 5.903-1.22.414 1.037-5.326-2.927.956-1.117 5.367s-6.124 2.725-11.86 6.417c0 0-.28.852-.267.852 0 0 9.14-4.867 11.826-5.88l-1.844 10.324s-.426 2.327-1.494 3.173c0 0 3.2.38 4.184-2.793l2.195-11.807 1.218-.404-3.486 19.3h4.093s3.33.064 4.16-.38c0 0 1.443-.6 2.658-2.35l3.82-5.926 1.832 6.435s.386 1.86 2.346 2.05h8.834s3.262-.44 3.818-3.11l.157-1.554s3.44.218 4.684-2.32c0 0 .4 2.214 2.923 2.177h1.355s2.56-.33 3.072-2.32c0 0-.036 2.32 3.912 2.245 0 0 .513 1.85-2.12 2.76 0 0-2.927.543-5.342-.91 0 0 1.024 2.29 4.607 2.798 0 0 3.526.738 5.38-1.04 0 0 .993-.958 1.39-3.896l2.657-16.02s.463-2.407-.673-3.62z"/></g></svg>