<?xml version="1.0" encoding="UTF-8" standalone="no"?>
<svg width="185px" height="53px" viewBox="0 0 185 53" version="1.1" xmlns="http://www.w3.org/2000/svg" xmlns:xlink="http://www.w3.org/1999/xlink">
    <!-- Generator: Sketch 3.6.1 (26313) - http://www.bohemiancoding.com/sketch -->
    <title>logo-color</title>
    <desc>Created with Sketch.</desc>
    <defs></defs>
    <g id="Client" stroke="none" stroke-width="1" fill="none" fill-rule="evenodd">
        <g id="ClientStory" transform="translate(-41.000000, -18.000000)">
            <g id="partial/navbar">
                <g id="logo-color" transform="translate(40.000000, 18.000000)">
                    <path d="M0.968,52.13 C95.808,36.3 172.102,49.578 172.102,49.578 L185.476,43.593 C62.354,30.2 0.968,52.13 0.968,52.13" id="Fill-1" fill="#B32323"></path>
                    <path d="M27.217,14.503 L28.254,12.589 C28.254,12.589 25.813,10.978 22.905,12.477 C22.905,12.477 19.795,13.898 19.217,19.211 L16.805,19.211 L16.402,21.528 L18.779,21.528 L16.34,34.982 L19.982,34.982 L22.482,21.523 L25.876,21.53 L26.31,19.211 L22.905,19.211 C22.905,19.211 22.996,16.495 24.238,14.929 C24.238,14.929 25.182,13.695 27.217,14.503" id="Fill-2" fill="#003F99"></path>
                    <path d="M47.959,19.216 C47.959,19.216 44.169,21.047 45.294,24.416 C45.294,24.416 45.557,25.156 46.437,26.057 C46.437,26.057 49.11,29.083 49.516,29.89 C49.516,29.89 50.298,31.78 48.65,32.534 C48.65,32.534 45.896,33.561 43.843,31.456 L42.656,33.886 C42.656,33.886 45.383,35.937 48.974,35.208 C48.974,35.208 54.24,34.237 53.268,29.353 C53.268,29.353 53.078,28.54 52.566,27.92 L49.597,24.438 C49.597,24.438 47.705,22.306 50.19,21.195 C50.19,21.195 51.957,20.548 53.412,22.132 L54.817,20.187 C54.817,20.187 51.231,17.648 47.959,19.216" id="Fill-3" fill="#003F99"></path>
                    <path d="M64.013,14.473 L60.125,15.336 L59.557,19.119 L57.479,19.119 L57.082,21.269 L59.135,21.269 L57.229,31.383 C56.813,34.3 59.064,35.021 59.064,35.021 C61.044,35.703 64.555,34.568 64.555,34.568 L64.571,32.214 C63.833,32.648 62.799,32.751 62.799,32.751 C60.772,32.913 60.935,31.429 60.935,31.429 C60.882,30.892 61.177,29.431 61.177,29.431 L62.826,21.264 L66.499,21.264 L66.876,19.119 L63.23,19.119 L64.013,14.473" id="Fill-4" fill="#003F99"></path>
                    <path d="M88.098,18.874 L82.4,30.458 L81.077,19.119 L78.243,19.119 L72.6,30.432 L71.763,18.847 L67.981,19.387 L69.954,34.885 L72.519,34.885 L78.323,23.681 L80.023,34.885 L82.536,34.885 L91.042,19.578 L88.098,18.874" id="Fill-5" fill="#003F99"></path>
                    <path d="M102.571,19.09 C102.571,19.09 100.058,17.972 96.884,19.597 C96.884,19.597 92.558,21.624 91.148,26.028 C91.148,26.028 90.185,28.598 90.854,31.278 C90.854,31.278 91.408,34.973 96.324,35.272 C96.324,35.272 100.358,35.349 102.968,33.255 L101.976,31.383 C101.976,31.383 98.395,33.238 96.36,32.43 C96.36,32.43 94.453,31.764 94.597,28.162 C94.597,28.162 98.548,28.202 100.852,27.435 C100.852,27.435 104.759,26.326 105.026,22.494 C105.026,22.494 105.134,20.022 102.571,19.09 L102.571,19.09 Z M101.329,23.976 C101.329,23.976 100.238,25.696 97.134,25.898 C97.134,25.898 95.254,26.003 94.984,25.988 C94.984,25.988 95.55,23.317 97.846,21.735 C97.846,21.735 100.158,20.184 101.354,21.775 C101.354,21.775 101.997,22.722 101.329,23.976 L101.329,23.976 Z" id="Fill-6" fill="#003F99"></path>
                    <path d="M117.011,18.845 C114.39,19.307 112.385,21.93 112.385,21.93 L114.266,11.775 L110.378,11.775 L106.161,34.94 L109.943,34.94 L110.157,33.561 C111.724,35.56 114.721,35.237 114.721,35.237 L114.723,35.237 C118.315,35.183 120.771,30.943 120.771,30.943 C123.859,25.396 121.979,21.59 121.979,21.59 C120.56,18.257 117.011,18.845 117.011,18.845 L117.011,18.845 Z M117.582,29.431 C117.582,29.431 115.909,33.546 112.739,32.878 C112.739,32.878 111.052,32.746 110.733,31.098 C110.733,31.098 110.724,30.396 111.085,28.686 C111.085,28.686 111.615,25.439 113.345,23.169 C113.345,23.169 115.027,20.917 116.987,21.547 C116.987,21.547 119.994,22.61 117.582,29.431 L117.582,29.431 Z" id="Fill-7" fill="#003F99"></path>
                    <path d="M132.219,25.936 C132.219,25.936 130.273,25.731 128.49,27.73 C128.49,27.73 126.709,29.601 127.195,32.448 C127.195,32.448 127.682,35.04 130.326,35.272 C130.326,35.272 132.162,35.38 133.493,34.245 L132.722,33.186 C132.722,33.186 131.472,34 130.544,33.831 C130.544,33.831 128.94,33.614 128.959,31.673 C128.959,31.673 128.815,29.278 130.634,27.966 C130.634,27.966 132.307,26.794 133.676,28.054 L134.737,26.937 C134.737,26.937 133.977,26.01 132.219,25.936" id="Fill-8" fill="#003F99"></path>
                    <path d="M174.338,26.11 C172.989,26.406 171.88,27.759 171.88,27.759 L172.125,26.219 L170.395,26.219 L168.636,35.021 L170.481,35.021 C170.499,34.839 170.974,32.242 170.974,32.242 C171.462,29.903 171.952,29.39 171.952,29.39 C173.384,27.275 174.788,27.567 174.788,27.567 C175.777,27.677 175.418,29.315 175.418,29.315 L174.211,35.021 L176.106,35.021 L177.31,29.097 C177.514,27.92 177.226,27.192 177.226,27.192 C176.415,25.489 174.338,26.11 174.338,26.11" id="Fill-9" fill="#003F99"></path>
                    <path d="M124.537,32.784 C123.937,32.646 123.324,33.067 123.17,33.726 C123.016,34.386 123.379,35.034 123.977,35.175 C124.577,35.317 125.188,34.894 125.344,34.233 C125.499,33.573 125.136,32.925 124.537,32.784" id="Fill-10" fill="#003F99"></path>
                    <path d="M158.666,32.784 C158.067,32.646 157.454,33.067 157.3,33.726 C157.144,34.386 157.506,35.034 158.106,35.175 C158.708,35.317 159.319,34.894 159.474,34.233 C159.627,33.573 159.267,32.925 158.666,32.784" id="Fill-11" fill="#003F99"></path>
                    <path d="M37.823,20.819 C37.823,20.819 36.981,19.299 34.69,18.819 C34.69,18.819 33.308,18.398 31.356,19.261 C31.356,19.261 27.87,20.572 26.313,25.092 C26.313,25.092 26.133,25.51 25.97,26.326 C25.97,26.326 25.167,29.235 26.177,32.284 C26.177,32.284 27.401,35.866 31.003,35.237 C31.003,35.237 33.539,34.696 35.682,32.284 L35.249,34.966 L38.902,34.966 L41.955,19.119 L38.201,19.119 L37.823,20.819 L37.823,20.819 Z M36.096,28.631 C34.537,32.204 32.352,32.646 32.352,32.646 C30.032,33.248 29.616,29.98 29.616,29.98 C29.031,26.248 31.182,23.545 31.182,23.545 C33.12,20.948 34.859,21.174 34.859,21.174 C35.891,21.231 36.594,21.957 36.819,22.366 C37.004,22.703 37.791,24.516 36.096,28.631 L36.096,28.631 Z" id="Fill-12" fill="#003F99"></path>
                    <path d="M164.69,27.966 C164.69,27.966 166.364,26.794 167.731,28.054 L168.793,26.937 C168.793,26.937 168.034,26.01 166.274,25.936 C166.274,25.936 164.33,25.731 162.547,27.73 C162.547,27.73 160.766,29.601 161.251,32.448 C161.251,32.448 161.738,35.04 164.384,35.272 C164.384,35.272 166.22,35.38 167.55,34.245 L166.777,33.186 C166.777,33.186 165.53,34 164.599,33.831 C164.599,33.831 162.999,33.614 163.017,31.673 C163.017,31.673 162.871,29.278 164.69,27.966" id="Fill-13" fill="#003F99"></path>
                    <path d="M153.367,26.578 C153.367,26.578 152.579,27.023 151.802,28.039 C151.802,28.039 151.837,25.95 149.856,25.986 C149.856,25.986 148.401,25.912 147.104,27.425 L147.285,26.309 L145.484,26.309 L143.773,35.04 L145.502,35.04 L146.203,31.167 C146.203,31.167 146.726,29.459 147.895,28.362 C147.895,28.362 148.61,27.585 149.496,27.552 C149.496,27.552 150.259,27.565 150.163,28.272 L148.977,35.046 L150.774,35.046 L151.435,31.185 C151.435,31.185 151.657,29.908 152.898,28.485 C152.898,28.485 154.247,27.059 155.149,27.767 C155.149,27.767 155.483,27.973 155.365,28.722 L154.179,35.046 L155.87,35.046 L156.273,32.97 L156.991,29.249 C157.108,28.351 157.235,27.323 156.733,26.685 C156.733,26.685 155.599,25.174 153.367,26.578" id="Fill-14" fill="#003F99"></path>
                    <path d="M177.226,2.539 C177.226,2.539 175.958,1.109 173.447,1.162 C173.447,1.162 166.562,0.702 161.459,4.24 L161.864,1.675 L158.543,2.377 L155.763,19.441 C155.763,19.441 155.573,22.275 153.305,22.763 L150.335,22.763 C150.335,22.763 149.47,22.413 149.2,21.007 L147.66,14.175 L152.63,14.175 L152.63,13.25 L151.538,13.245 C151.538,13.245 153.882,9.311 153.036,6.594 C153.036,6.594 152.192,4.021 147.571,4.218 L148.195,0.533 L144.479,1.219 L143.915,4.344 C143.915,4.344 141.137,4.677 138.812,5.27 L139.759,0.472 L136.104,1.252 L135.198,6.273 L134.169,6.624 L135.044,2.094 L132.575,2.907 L131.632,7.472 C131.632,7.472 126.465,9.789 121.626,12.929 C121.626,12.929 121.39,13.654 121.4,13.654 C121.4,13.654 129.113,9.515 131.378,8.654 L129.822,17.435 C129.822,17.435 129.463,19.414 128.562,20.134 C128.562,20.134 131.262,20.458 132.092,17.758 L133.944,7.715 L134.972,7.372 L132.03,23.788 L135.483,23.788 C135.483,23.788 138.294,23.842 138.993,23.465 C138.993,23.465 140.211,22.953 141.236,21.466 L144.458,16.425 L146.005,21.899 C146.005,21.899 146.33,23.481 147.984,23.643 L155.438,23.643 C155.438,23.643 158.19,23.267 158.659,20.998 L158.792,19.675 C158.792,19.675 161.694,19.861 162.744,17.701 C162.744,17.701 163.082,19.585 165.21,19.554 L166.354,19.554 C166.354,19.554 168.516,19.273 168.946,17.579 C168.946,17.579 168.916,19.554 172.247,19.49 C172.247,19.49 172.681,21.064 170.459,21.837 C170.459,21.837 167.989,22.299 165.952,21.064 C165.952,21.064 166.816,23.01 169.839,23.443 C169.839,23.443 172.815,24.071 174.379,22.558 C174.379,22.558 175.216,21.744 175.55,19.245 L177.793,5.619 C177.793,5.619 178.185,3.571 177.226,2.539 L177.226,2.539 Z M142.315,13.259 L137.841,13.291 L137.841,14.278 L142.006,14.278 C141.358,16.095 138.149,20.51 138.149,20.51 C137.501,21.683 135.527,23.319 135.527,23.319 L138.582,6.406 C138.582,6.406 142.933,5.605 143.612,5.605 L142.315,13.259 L142.315,13.259 Z M145.852,13.276 L147.29,5.438 C150.446,5.655 150.165,7.781 150.165,7.781 C150.132,10.31 148.089,13.291 148.089,13.291 L145.852,13.276 L145.852,13.276 Z M165.706,18.165 L164.994,12.796 L167.712,7.087 L168.329,12.979 L165.706,18.165 L165.706,18.165 Z M174.746,5.234 L172.433,18.998 C171.507,18.288 171.075,12.889 171.075,12.889 L174.315,5.512 L171.66,5.512 L170.459,7.888 L170.273,5.421 L165.736,5.421 L164.441,8.044 L164.196,5.421 L161.57,5.421 L162.065,13.228 C161.294,16.281 159.009,18.935 159.009,18.935 L161.138,5.638 C162.651,4.187 165.21,3.385 165.21,3.385 C170.149,1.749 173.236,2.767 173.236,2.767 C175.18,3.321 174.746,5.234 174.746,5.234 L174.746,5.234 Z" id="Fill-15" fill="#003F99"></path>
                    <path d="M138.483,26.148 C138.301,26.216 138.141,26.302 138.12,26.316 C137.539,26.578 136.26,27.522 135.593,29.337 C135.593,29.337 134.847,31.447 135.675,33.306 C135.675,33.306 136.378,34.97 138.392,35.254 C141.278,35.484 142.722,32.579 142.722,32.579 C143.992,30.118 143.151,28.324 143.151,28.324 C142.464,26.568 141.223,26.138 141.223,26.138 C140.097,25.684 138.967,25.972 138.483,26.148 Z M140.763,32.685 C139.602,34.116 138.477,33.679 138.477,33.679 C136.697,33.179 137.159,30.538 137.159,30.538 C137.375,28.812 138.496,27.907 138.496,27.907 C139.773,26.847 140.831,27.677 140.831,27.677 C141.464,28.162 141.598,29.088 141.598,29.088 C141.894,31.339 140.763,32.685 140.763,32.685 L140.763,32.685 Z" id="Fill-16" fill="#003F99"></path>
                </g>
            </g>
        </g>
    </g>
</svg>