<svg xmlns="http://www.w3.org/2000/svg" width="69" height="71" viewBox="0 0 69 71">
  <g fill="none" fill-rule="evenodd">
    <path fill="#232323" d="M25.2939789 21.4907158C24.4754526 21.4907158 23.7024 21.8128211 23.1226105 22.3945053 22.5409263 22.9742947 22.2226105 23.7454526 22.2207158 24.5639789L22.2226105 41.6848211C22.2226105 42.1262947 21.8626105 42.4862947 21.4192421 42.4862947 20.9796632 42.4862947 20.6196632 42.1262947 20.6196632 41.6848211L20.6196632 24.5639789C20.6196632 23.3191368 21.1066105 22.1444 21.9895579 21.2595579 22.8744 20.3747158 24.0472421 19.8877684 25.2939789 19.8877684 25.7373474 19.8877684 26.0954526 20.2477684 26.0954526 20.6911368 26.0954526 21.1345053 25.7373474 21.4907158 25.2939789 21.4907158L25.2939789 21.4907158zM25.2939789 18.2961895C21.8304 18.2961895 19.0242947 21.1022947 19.0205053 24.5639789L19.0205053 41.6848211C19.0242947 45.1465053 21.8304 47.9564 25.2958737 47.9564 28.7575579 47.9564 31.5674526 45.1465053 31.5674526 41.6848211L31.5674526 24.5639789C31.5674526 21.1022947 28.7575579 18.2961895 25.2939789 18.2961895L25.2939789 18.2961895zM43.7473895 4.09210526C42.9269684 4.09210526 42.1539158 4.41042105 41.5741263 4.994 40.9962316 5.57568421 40.6703368 6.34684211 40.6741263 7.16536842L40.6419158 41.6836842C40.6419158 42.1270526 40.2857053 42.4851579 39.8442316 42.4851579 39.4008632 42.4851579 39.0427579 42.1270526 39.0427579 41.6836842L39.0711789 7.16536842C39.0692842 5.91863158 39.5562316 4.74389474 40.4410737 3.85905263 41.3259158 2.97610526 42.5025474 2.48915789 43.7473895 2.48915789 44.1888632 2.48915789 44.5469684 2.84915789 44.5488632 3.29063158 44.5469684 3.734 44.1888632 4.09210526 43.7473895 4.09210526M43.7473895.895684211C40.2819158.895684211 37.4758105 3.69989474 37.4758105 7.16536842L37.4473895 41.6836842C37.4473895 45.1472632 40.2553895 47.9552632 43.7189684 47.9552632 47.1806526 47.9552632 49.9886526 45.1472632 49.9886526 41.6836842L50.0189684 7.16536842C50.0151789 3.69989474 47.2090737.895684211 43.7473895.895684211M6.84625263 4.09210526C6.02772632 4.09210526 5.25467368 4.41042105 4.67488421 4.994 4.0932 5.57568421 3.77109474 6.34684211 3.77109474 7.16536842L3.74267368 41.6836842C3.74267368 42.1270526 3.38646316 42.4851579 2.9412 42.4851579 2.49972632 42.4851579 2.14351579 42.1270526 2.14351579 41.6836842L2.17004211 7.16536842C2.16814737 5.91863158 2.65698947 4.74389474 3.54183158 3.85905263 4.42667368 2.97610526 5.60141053 2.48915789 6.84625263 2.48915789 7.28772632 2.48915789 7.64772632 2.84915789 7.64962105 3.29063158 7.64772632 3.734 7.28772632 4.09210526 6.84625263 4.09210526M6.84625263.895684211C3.38267368.895684211.574673684 3.69989474.572778947 7.16536842L.546252632 41.6836842C.548147368 45.1472632 3.35425263 47.9552632 6.81783158 47.9552632 10.2795158 47.9552632 13.0894105 45.1472632 13.0894105 41.6836842L13.1197263 7.16536842C13.1159368 3.69989474 10.3079368.895684211 6.84625263.895684211M62.1414947 21.4907158C61.3191789 21.4907158 60.5499158 21.8109263 59.9663368 22.3945053 59.3884421 22.9742947 59.0663368 23.7454526 59.0663368 24.5639789L59.0663368 41.6848211C59.0663368 42.1262947 58.7082316 42.4862947 58.2667579 42.4862947 57.8233895 42.4862947 57.4633895 42.1262947 57.4633895 41.6848211L57.4633895 24.5639789C57.4633895 23.3191368 57.9522316 22.1444 58.8332842 21.2576632 59.7181263 20.3747158 60.8909684 19.8877684 62.1414947 19.8877684 62.5810737 19.8877684 62.9410737 20.2458737 62.9410737 20.6892421 62.9410737 21.1326105 62.5810737 21.4907158 62.1414947 21.4907158M62.1377053 18.2961895C58.6779158 18.2961895 55.8680211 21.1022947 55.8680211 24.5639789L55.8680211 41.6848211C55.8680211 45.1465053 58.6779158 47.9564 62.1414947 47.9564 65.6050737 47.9564 68.4111789 45.1465053 68.4111789 41.6848211L68.4111789 24.5639789C68.4111789 21.1022947 65.6012842 18.2961895 62.1377053 18.2961895M3.33435789 70.442L-.000378947368 55.8468421 3.16193684 55.8468421 4.39730526 62.3438947C4.73267368 64.1192632 5.00362105 65.7657895 5.21014737 67.0864211L5.25183158 67.0864211C5.50193684 65.6577895 5.73688421 64.1628421 6.06846316 62.3874737L7.44972632 55.8468421 10.8716211 55.8468421 12.0634105 62.3647368C12.3779368 64.1192632 12.6090947 65.5706316 12.7928842 66.9992632L12.8383579 66.9992632C13.0448842 65.4834737 13.2930947 63.9241053 13.5754105 62.3438947L14.8543579 55.8468421 18.1474105 55.8468421 14.4848842 70.442 11.0876211 70.442 9.86551579 64.466C9.51498947 62.7342105 9.28004211 61.262 9.05456842 59.6154737L9.00909474 59.6154737C8.78551579 61.1729474 8.56762105 62.7550526 8.19056842 64.5304211L6.79793684 70.442 3.33435789 70.442zM22.5500211 58.8553053L22.5708632 58.8553053C23.6319158 58.8553053 24.4940211 58.1637263 24.4087579 56.9719368 24.3424421 55.9772 23.6072842 55.3481474 22.6333895 55.3481474 21.6159158 55.3481474 20.7784421 56.1060421 20.8561263 57.2315158 20.9243368 58.2054105 21.6367579 58.8553053 22.5500211 58.8553053"/>
    <polygon fill="#232323" points="21.099 61.031 21.094 70.442 24.212 70.442 24.195 61.031"/>
    <path fill="#F4A31C" d="M62.1414947,4.09210526 C61.3191789,4.09210526 60.5499158,4.41042105 59.9663368,4.99210526 C59.3884421,5.57378947 59.0663368,6.34684211 59.0663368,7.16536842 C59.0663368,7.60873684 58.7082316,7.96684211 58.2629684,7.96684211 C57.8233895,7.96684211 57.4633895,7.60873684 57.4633895,7.16536842 C57.4633895,5.91863158 57.9522316,4.74389474 58.8332842,3.85905263 C59.7181263,2.97610526 60.8909684,2.48915789 62.1377053,2.48915789 C62.5810737,2.48915789 62.9410737,2.84915789 62.9372842,3.29063158 C62.9410737,3.73210526 62.5810737,4.09210526 62.1414947,4.09210526 M62.1377053,0.895684211 C58.6779158,0.895684211 55.8680211,3.70178947 55.8680211,7.16536842 C55.8680211,10.6289474 58.6779158,13.4369474 62.1377053,13.4369474 C65.6012842,13.4369474 68.4111789,10.6289474 68.4111789,7.16536842 C68.4111789,3.70178947 65.6012842,0.895684211 62.1377053,0.895684211"/>
    <polygon fill="#F4A31C" points="27.574 55.848 36.13 55.848 36.115 58.51 30.7 58.51 30.681 61.933 35.767 61.933 35.746 64.552 30.681 64.552 30.692 70.443 27.574 70.443"/>
    <polygon fill="#F4A31C" points="39.577 70.442 42.694 70.442 42.694 55.847 39.577 55.847"/>
    <path fill="#F4A31C" d="M48.9171789,62.3440842 L50.1923368,62.3440842 C51.8824421,62.3440842 52.9226526,61.3266105 52.6536,59.8960842 C52.4338105,58.7270316 51.3576,58.2078737 50.1032842,58.2078737 C49.5178105,58.2078737 49.1578105,58.2514526 48.9077053,58.3158737 L48.9171789,62.3440842 Z M45.8325474,56.1293474 C46.7609684,55.8906105 48.2085474,55.7617684 49.6599158,55.7617684 C51.0468632,55.7617684 52.5114947,55.9550316 53.6521263,56.6049263 C54.7150737,57.1676632 55.5544421,58.0771368 55.8178105,59.4413474 C56.2270737,61.6070316 55.0504421,62.9504 53.2826526,63.5567158 L53.2959158,63.6192421 C54.2376,64.0114526 54.8060211,64.9626105 55.1887579,66.2851368 C55.6946526,67.9316632 56.1645474,69.8358737 56.5378105,70.4421895 L53.3338105,70.4421895 C53.1348632,70.0518737 52.7426526,68.7956632 52.2708632,66.9994526 C51.7801263,65.2240842 51.0733895,64.6821895 49.8361263,64.6821895 L48.8830737,64.6821895 L48.8963368,70.4421895 L45.8211789,70.4421895 L45.8325474,56.1293474 Z"/>
    <polygon fill="#F4A31C" points="67.729 64.228 62.553 64.228 62.557 67.78 68.381 67.78 68.366 70.442 59.425 70.442 59.425 55.847 68.067 55.847 68.052 58.509 62.553 58.509 62.534 61.607 67.752 61.607"/>
  </g>
</svg>
