<svg xmlns="http://www.w3.org/2000/svg" width="71" height="72" viewBox="0 0 71 72">
  <g fill="#FFA705" fill-rule="evenodd">
    <path d="M26.2241935 18.2857143C22.6360215 18.2857143 19.7349462 21.1809524 19.7349462 24.7619048L19.7349462 42.4C19.7349462 45.9809524 22.6360215 48.8761905 26.2241935 48.8761905 29.8123656 48.8761905 32.7134409 45.9809524 32.7134409 42.4L32.7134409 24.7619048C32.6752688 21.1809524 29.7741935 18.2857143 26.2241935 18.2857143L26.2241935 18.2857143zM26.2241935 21.5619048C25.3844086 21.5619048 24.5827957 21.9047619 23.972043 22.4761905 23.3612903 23.0857143 23.055914 23.8857143 23.055914 24.7238095L23.055914 42.3619048C23.055914 42.8190476 22.6741935 43.2 22.216129 43.2 21.7580645 43.2 21.3763441 42.8190476 21.3763441 42.3619048L21.3763441 24.7238095C21.3763441 23.4285714 21.8725806 22.247619 22.7887097 21.3333333 23.7048387 20.4190476 24.9263441 19.9238095 26.1860215 19.9238095 26.644086 19.9238095 27.0258065 20.3047619 27.0258065 20.7619048 27.0258065 21.1809524 26.6822581 21.5619048 26.2241935 21.5619048L26.2241935 21.5619048zM45.272043.342857143C41.683871.342857143 38.7827957 3.23809524 38.7827957 6.81904762L38.7446237 42.3619048C38.7446237 45.9428571 41.6456989 48.8380952 45.233871 48.8380952 48.822043 48.8380952 51.7231183 45.9428571 51.7231183 42.3619048L51.7612903 6.81904762C51.7231183 3.23809524 48.822043.342857143 45.272043.342857143L45.272043.342857143zM45.272043 3.65714286C44.4322581 3.65714286 43.6306452 4 43.0198925 4.57142857 42.4091398 5.18095238 42.1037634 5.98095238 42.1037634 6.81904762L42.0655914 42.3619048C42.0655914 42.8190476 41.683871 43.2 41.2258065 43.2 40.7677419 43.2 40.3860215 42.8190476 40.3860215 42.3619048L40.4241935 6.81904762C40.4241935 5.52380952 40.9204301 4.34285714 41.8365591 3.42857143 42.7526882 2.51428571 43.9741935 2.01904762 45.233871 2.01904762 45.6919355 2.01904762 46.0736559 2.4 46.0736559 2.85714286 46.0736559 3.27619048 45.6919355 3.65714286 45.272043 3.65714286L45.272043 3.65714286zM7.17634409.342857143C3.58817204.342857143.687096774 3.23809524.687096774 6.81904762L.648924731 42.3619048C.648924731 45.9428571 3.55 48.8380952 7.13817204 48.8380952 10.7263441 48.8380952 13.6274194 45.9428571 13.6274194 42.3619048L13.6655914 6.81904762C13.6274194 3.23809524 10.7263441.342857143 7.17634409.342857143L7.17634409.342857143zM7.17634409 3.65714286C6.33655914 3.65714286 5.53494624 4 4.92419355 4.57142857 4.31344086 5.18095238 4.00806452 5.98095238 4.00806452 6.81904762L3.96989247 42.3619048C3.96989247 42.8190476 3.58817204 43.2 3.13010753 43.2 2.67204301 43.2 2.29032258 42.8190476 2.29032258 42.3619048L2.32849462 6.81904762C2.32849462 5.52380952 2.82473118 4.34285714 3.74086022 3.42857143 4.65698925 2.51428571 5.87849462 2.01904762 7.13817204 2.01904762 7.59623656 2.01904762 7.97795699 2.4 7.97795699 2.85714286 7.97795699 3.27619048 7.6344086 3.65714286 7.17634409 3.65714286L7.17634409 3.65714286zM64.2435484 18.2857143C60.6553763 18.2857143 57.7543011 21.1809524 57.7543011 24.7619048L57.7543011 42.4C57.7543011 45.9809524 60.6553763 48.8761905 64.2435484 48.8761905 67.8317204 48.8761905 70.7327957 45.9809524 70.7327957 42.4L70.7327957 24.7619048C70.7327957 21.1809524 67.8317204 18.2857143 64.2435484 18.2857143L64.2435484 18.2857143zM64.2435484 21.5619048C63.4037634 21.5619048 62.6021505 21.9047619 61.9913978 22.4761905 61.3806452 23.0857143 61.0752688 23.8857143 61.0752688 24.7238095L61.0752688 42.3619048C61.0752688 42.8190476 60.6935484 43.2 60.2354839 43.2 59.7774194 43.2 59.3956989 42.8190476 59.3956989 42.3619048L59.3956989 24.7238095C59.3956989 23.4285714 59.8919355 22.247619 60.8080645 21.3333333 61.7241935 20.4190476 62.9456989 19.9238095 64.2053763 19.9238095 64.6634409 19.9238095 65.0451613 20.3047619 65.0451613 20.7619048 65.0833333 21.1809524 64.7016129 21.5619048 64.2435484 21.5619048L64.2435484 21.5619048zM3.55 72L.114516129 56.952381 3.39731183 56.952381 4.65698925 63.6571429C5.00053763 65.4857143 5.26774194 67.2 5.49677419 68.5333333L5.53494624 68.5333333C5.80215054 67.047619 6.0311828 65.5238095 6.37473118 63.6952381L7.78709677 56.952381 11.3370968 56.952381 12.5586022 63.6571429C12.8639785 65.447619 13.1311828 66.9714286 13.322043 68.4190476L13.3602151 68.4190476C13.5892473 66.8571429 13.8182796 65.2571429 14.1236559 63.6190476L15.4596774 56.9142857 18.8569892 56.9142857 15.077957 71.9619048 11.566129 71.9619048 10.3064516 65.7904762C9.92473118 64 9.69569892 62.4761905 9.46666667 60.8L9.42849462 60.8C9.19946237 62.4 8.97043011 64.0380952 8.58870968 65.8666667L7.13817204 71.9619048 3.55 71.9619048 3.55 72zM23.3612903 60.0761905L23.3612903 60.0761905C24.4682796 60.0761905 25.3844086 59.352381 25.2698925 58.1333333 25.1935484 57.1047619 24.4301075 56.4571429 23.4376344 56.4571429 22.3688172 56.4571429 21.5290323 57.2190476 21.6053763 58.4 21.6817204 59.3904762 22.4451613 60.0761905 23.3612903 60.0761905L23.3612903 60.0761905z"/>
    <polygon points="21.873 62.286 21.873 72 25.079 72 25.079 62.286"/>
    <path d="M64.2435484,0.342857143 C60.6553763,0.342857143 57.7543011,3.23809524 57.7543011,6.81904762 L57.7543011,6.81904762 C57.7543011,10.4 60.6553763,13.2952381 64.2435484,13.2952381 C67.8317204,13.2952381 70.7327957,10.4 70.7327957,6.81904762 L70.7327957,6.81904762 C70.6946237,3.23809524 67.8317204,0.342857143 64.2435484,0.342857143 L64.2435484,0.342857143 Z M64.2435484,3.65714286 C63.4037634,3.65714286 62.6021505,4 61.9913978,4.57142857 C61.3806452,5.18095238 61.0752688,5.98095238 61.0752688,6.81904762 L61.0752688,6.81904762 C61.0752688,7.27619048 60.6935484,7.65714286 60.2354839,7.65714286 C59.7774194,7.65714286 59.3956989,7.27619048 59.3956989,6.81904762 L59.3956989,6.81904762 C59.3956989,5.52380952 59.8919355,4.34285714 60.8080645,3.42857143 C61.7241935,2.51428571 62.9456989,2.01904762 64.2053763,2.01904762 C64.6634409,2.01904762 65.0451613,2.4 65.0451613,2.85714286 C65.0833333,3.27619048 64.7016129,3.65714286 64.2435484,3.65714286 L64.2435484,3.65714286 Z"/>
    <polygon points="28.553 56.952 37.409 56.952 37.409 59.695 31.835 59.695 31.797 63.238 37.027 63.238 36.989 65.943 31.759 65.943 31.759 72 28.553 72"/>
    <polygon points="44.165 56.952 44.165 72 40.959 72 40.959 56.952"/>
    <path d="M47.4096774,57.2571429 C48.3639785,57.0285714 49.8526882,56.8761905 51.3795699,56.8761905 C52.7919355,56.8761905 54.3188172,57.0666667 55.5021505,57.752381 C56.6091398,58.3238095 57.4489247,59.2761905 57.716129,60.6857143 C58.1360215,62.9333333 56.9145161,64.3047619 55.1204301,64.9142857 L55.1204301,64.9904762 C56.0747312,65.4095238 56.6854839,66.3619048 57.0672043,67.7333333 C57.6016129,69.447619 58.0596774,71.3904762 58.4795699,72 L55.1586022,72 C54.9677419,71.5809524 54.5478495,70.2857143 54.0516129,68.4571429 C53.5553763,66.6285714 52.8301075,66.0571429 51.5322581,66.0571429 L50.5397849,66.0571429 L50.5397849,72 L47.3715054,72 L47.4096774,57.2571429 L47.4096774,57.2571429 Z M50.577957,63.6571429 L51.9139785,63.6571429 C53.6698925,63.6571429 54.7387097,62.5904762 54.4715054,61.1428571 C54.2424731,59.9238095 53.1354839,59.3904762 51.8376344,59.3904762 C51.2268817,59.3904762 50.8451613,59.4285714 50.616129,59.5047619 L50.577957,63.6571429 L50.577957,63.6571429 Z"/>
    <polygon points="70.008 65.6 64.663 65.6 64.663 69.257 70.695 69.257 70.695 72 61.457 72 61.457 56.952 70.389 56.952 70.389 59.695 64.702 59.695 64.663 62.895 70.046 62.895"/>
  </g>
</svg>
