<svg xmlns="http://www.w3.org/2000/svg" width="93" height="95" viewBox="0 0 93 95">
  <g fill="#FFFFFF" fill-rule="evenodd" transform="translate(0 -1)">
    <path d="M34.2003096 29.0578692C33.0935698 29.0578692 32.0483155 29.4933918 31.2643748 30.2798944 30.4778722 31.0638351 30.0474734 32.1065275 30.0449115 33.2132673L30.0474734 56.3625749C30.0474734 56.9594971 29.5607128 57.4462577 28.9612288 57.4462577 28.3668685 57.4462577 27.8801079 56.9594971 27.8801079 56.3625749L27.8801079 33.2132673C27.8801079 31.5301005 28.5385156 29.9417239 29.73236 28.7453177 30.9287662 27.5489115 32.5145809 26.8905038 34.2003096 26.8905038 34.7997936 26.8905038 35.2839923 27.3772643 35.2839923 27.9767484 35.2839923 28.5762325 34.7997936 29.0578692 34.2003096 29.0578692L34.2003096 29.0578692zM34.2003096 24.7385097C29.5171606 24.7385097 25.7229901 28.5326802 25.7178663 33.2132673L25.7178663 56.3625749C25.7229901 61.043162 29.5171606 64.8424563 34.2028715 64.8424563 38.8834586 64.8424563 42.6827529 61.043162 42.6827529 56.3625749L42.6827529 33.2132673C42.6827529 28.5326802 38.8834586 24.7385097 34.2003096 24.7385097L34.2003096 24.7385097zM59.1513999 5.5329874C58.0420981 5.5329874 56.9968439 5.96338621 56.2129032 6.7524507 55.4315244 7.5389533 54.990878 8.58164566 54.9960018 9.68838547L54.9524495 56.3610378C54.9524495 56.9605219 54.4708128 57.4447205 53.8738906 57.4447205 53.2744065 57.4447205 52.7902079 56.9605219 52.7902079 56.3610378L52.8286363 9.68838547C52.8260744 8.00265678 53.4844821 6.41428021 54.6808884 5.21787398 55.8772946 4.02402965 57.4682331 3.36562194 59.1513999 3.36562194 59.748322 3.36562194 60.2325207 3.85238251 60.2350826 4.44930467 60.2325207 5.04878873 59.748322 5.5329874 59.1513999 5.5329874M59.1513999 1.21106597C54.465689 1.21106597 50.6715185 5.00267457 50.6715185 9.68838547L50.63309 56.3610378C50.63309 61.0441868 54.4298224 64.8409192 59.1129714 64.8409192 63.7935585 64.8409192 67.5902909 61.0441868 67.5902909 56.3610378L67.6312812 9.68838547C67.6261574 5.00267457 63.831987 1.21106597 59.1513999 1.21106597M9.25690497 5.5329874C8.15016516 5.5329874 7.1049109 5.96338621 6.3209702 6.7524507 5.53446761 7.5389533 5.098945 8.58164566 5.098945 9.68838547L5.06051653 56.3610378C5.06051653 56.9605219 4.57887976 57.4447205 3.9768338 57.4447205 3.37991164 57.4447205 2.89827487 56.9605219 2.89827487 56.3610378L2.93414144 9.68838547C2.93157954 8.00265678 3.59254915 6.41428021 4.78895537 5.21787398 5.9853616 4.02402965 7.57373818 3.36562194 9.25690497 3.36562194 9.85382713 3.36562194 10.3405877 3.85238251 10.3431496 4.44930467 10.3405877 5.04878873 9.85382713 5.5329874 9.25690497 5.5329874M9.25690497 1.21106597C4.57375597 1.21106597.777023573 5.00267457.774461675 9.68838547L.738595107 56.3610378C.741157005 61.0441868 4.5353275 64.8409192 9.2184765 64.8409192 13.8990636 64.8409192 17.6983579 61.0441868 17.6983579 56.3610378L17.7393483 9.68838547C17.7342245 5.00267457 13.9374921 1.21106597 9.25690497 1.21106597M84.0223027 29.0578692C82.9104391 29.0578692 81.8703087 29.4908299 81.0812442 30.2798944 80.2998654 31.0638351 79.8643428 32.1065275 79.8643428 33.2132673L79.8643428 56.3625749C79.8643428 56.9594971 79.3801441 57.4462577 78.7832219 57.4462577 78.1837379 57.4462577 77.6969773 56.9594971 77.6969773 56.3625749L77.6969773 33.2132673C77.6969773 31.5301005 78.3579469 29.9417239 79.5492294 28.7427558 80.7456356 27.5489115 82.3314503 26.8905038 84.0223027 26.8905038 84.616663 26.8905038 85.1034236 27.3747024 85.1034236 27.9741865 85.1034236 28.5736706 84.616663 29.0578692 84.0223027 29.0578692M84.0171789 24.7385097C79.3391537 24.7385097 75.5398595 28.5326802 75.5398595 33.2132673L75.5398595 56.3625749C75.5398595 61.043162 79.3391537 64.8424563 84.0223027 64.8424563 88.7054517 64.8424563 92.4996222 61.043162 92.4996222 56.3625749L92.4996222 33.2132673C92.4996222 28.5326802 88.7003279 24.7385097 84.0171789 24.7385097M4.50842758 95.2455211L-.00051237954 75.5112231 4.27529489 75.5112231 5.94565219 84.2959703C6.39910808 86.6964685 6.76545945 88.9227576 7.0447063 90.7084003L7.10106805 90.7084003C7.43923855 88.7767294 7.75691386 86.7553921 8.20524596 84.354894L10.0728694 75.5112231 14.6996566 75.5112231 16.3110903 84.3241512C16.7363653 86.6964685 17.0489168 88.6588821 17.2974209 90.590553L17.3589064 90.590553C17.6381533 88.5410348 17.9737619 86.432593 18.3554847 84.2959703L20.0847656 75.5112231 24.5373438 75.5112231 19.5851956 95.2455211 14.991713 95.2455211 13.339289 87.1652958C12.8653379 84.8237213 12.5476626 82.8331268 12.2427967 80.6068377L12.1813112 80.6068377C11.8790073 82.7127176 11.584389 84.8519021 11.0745714 87.2524003L9.19157658 95.2455211 4.50842758 95.2455211zM30.4901693 79.5790043L30.5183502 79.5790043C31.9530129 79.5790043 33.1186764 78.6439116 33.003391 77.032478 32.9137245 75.6874817 31.9197082 74.8369317 30.6028928 74.8369317 29.2271537 74.8369317 28.094795 75.8616907 28.1998328 77.383458 28.2920611 78.7002734 29.2553346 79.5790043 30.4901693 79.5790043"/>
    <polygon points="28.529 82.521 28.521 95.246 32.738 95.246 32.715 82.521"/>
    <path d="M84.0223027,5.5329874 C82.9104391,5.5329874 81.8703087,5.96338621 81.0812442,6.74988881 C80.2998654,7.5363914 79.8643428,8.58164566 79.8643428,9.68838547 C79.8643428,10.2878695 79.3801441,10.7720682 78.7780981,10.7720682 C78.1837379,10.7720682 77.6969773,10.2878695 77.6969773,9.68838547 C77.6969773,8.00265678 78.3579469,6.41428021 79.5492294,5.21787398 C80.7456356,4.02402965 82.3314503,3.36562194 84.0171789,3.36562194 C84.616663,3.36562194 85.1034236,3.85238251 85.0982998,4.44930467 C85.1034236,5.04622683 84.616663,5.5329874 84.0223027,5.5329874 M84.0171789,1.21106597 C79.3391537,1.21106597 75.5398595,5.00523647 75.5398595,9.68838547 C75.5398595,14.3715345 79.3391537,18.1682669 84.0171789,18.1682669 C88.7003279,18.1682669 92.4996222,14.3715345 92.4996222,9.68838547 C92.4996222,5.00523647 88.7003279,1.21106597 84.0171789,1.21106597"/>
    <polygon points="37.283 75.512 48.852 75.512 48.832 79.112 41.51 79.112 41.484 83.741 48.36 83.741 48.332 87.282 41.484 87.282 41.5 95.247 37.283 95.247"/>
    <polygon points="53.513 95.246 57.727 95.246 57.727 75.511 53.513 75.511"/>
    <path d="M66.1415377,84.2962265 L67.8656949,84.2962265 C70.1509076,84.2962265 71.5573895,82.9204875 71.1936,80.9862547 C70.8964199,79.4055638 69.441262,78.7036039 67.7452857,78.7036039 C66.9536593,78.7036039 66.4668987,78.7625275 66.1287282,78.849632 L66.1415377,84.2962265 Z M61.9707683,75.8932021 C63.2260981,75.570403 65.183388,75.3961939 67.1458016,75.3961939 C69.0211107,75.3961939 71.0014577,75.6575075 72.5437201,76.5362384 C73.9809447,77.297122 75.1158654,78.5268329 75.4719692,80.3713993 C76.0253391,83.2996483 74.4344006,85.1160338 72.04415,85.9358411 L72.0620833,86.0203837 C73.3353465,86.5506965 74.1039158,87.8367692 74.6214191,89.6249738 C75.3054458,91.8512629 75.9407964,94.4259701 76.4454903,95.2457773 L72.1133213,95.2457773 C71.844322,94.7180264 71.3140092,93.0194882 70.6760967,90.5908092 C70.0125652,88.190311 69.0569773,87.4576083 67.3840581,87.4576083 L66.0954236,87.4576083 L66.1133569,95.2457773 L61.9553969,95.2457773 L61.9707683,75.8932021 Z"/>
    <polygon points="91.578 86.843 84.579 86.843 84.584 91.647 92.459 91.647 92.439 95.246 80.349 95.246 80.349 75.512 92.034 75.512 92.013 79.111 84.579 79.111 84.553 83.3 91.609 83.3"/>
  </g>
</svg>
